<mxfile host="Electron" agent="Mozilla/5.0 (Windows NT 10.0; Win64; x64) AppleWebKit/537.36 (KHTML, like Gecko) draw.io/24.7.17 Chrome/128.0.6613.36 Electron/32.0.1 Safari/537.36" version="24.7.17" pages="3">
  <diagram name="High_Level_Methodology" id="hEOc5YJeBc22n5fNZbQS">
    <mxGraphModel dx="2924" dy="1196" grid="1" gridSize="10" guides="1" tooltips="1" connect="1" arrows="1" fold="1" page="1" pageScale="1" pageWidth="850" pageHeight="1100" math="0" shadow="0">
      <root>
        <mxCell id="0" />
        <mxCell id="1" parent="0" />
        <mxCell id="i4j6CFAl2UJLHu69uaSK-1" value="" style="rounded=0;whiteSpace=wrap;html=1;" vertex="1" parent="1">
          <mxGeometry x="-580" y="170" width="1660" height="590" as="geometry" />
        </mxCell>
        <mxCell id="i4j6CFAl2UJLHu69uaSK-19" value="" style="rounded=0;whiteSpace=wrap;html=1;fillColor=#dae8fc;strokeColor=#6c8ebf;" vertex="1" parent="1">
          <mxGeometry x="-430" y="270" width="1140" height="280" as="geometry" />
        </mxCell>
        <mxCell id="i4j6CFAl2UJLHu69uaSK-4" style="edgeStyle=orthogonalEdgeStyle;rounded=0;orthogonalLoop=1;jettySize=auto;html=1;entryX=0;entryY=0.5;entryDx=0;entryDy=0;" edge="1" parent="1" target="i4j6CFAl2UJLHu69uaSK-3">
          <mxGeometry relative="1" as="geometry">
            <mxPoint x="-190" y="330" as="sourcePoint" />
          </mxGeometry>
        </mxCell>
        <mxCell id="i4j6CFAl2UJLHu69uaSK-6" style="edgeStyle=orthogonalEdgeStyle;rounded=0;orthogonalLoop=1;jettySize=auto;html=1;entryX=0;entryY=0.5;entryDx=0;entryDy=0;" edge="1" parent="1" source="i4j6CFAl2UJLHu69uaSK-3" target="i4j6CFAl2UJLHu69uaSK-5">
          <mxGeometry relative="1" as="geometry" />
        </mxCell>
        <mxCell id="i4j6CFAl2UJLHu69uaSK-3" value="&lt;font style=&quot;font-size: 18px;&quot;&gt;EDA and Preprocess&lt;/font&gt;" style="rounded=1;whiteSpace=wrap;html=1;" vertex="1" parent="1">
          <mxGeometry x="-150" y="300" width="120" height="60" as="geometry" />
        </mxCell>
        <mxCell id="i4j6CFAl2UJLHu69uaSK-8" style="edgeStyle=orthogonalEdgeStyle;rounded=0;orthogonalLoop=1;jettySize=auto;html=1;entryX=0;entryY=0.5;entryDx=0;entryDy=0;" edge="1" parent="1" source="i4j6CFAl2UJLHu69uaSK-5" target="i4j6CFAl2UJLHu69uaSK-7">
          <mxGeometry relative="1" as="geometry" />
        </mxCell>
        <mxCell id="i4j6CFAl2UJLHu69uaSK-5" value="&lt;font style=&quot;font-size: 18px;&quot;&gt;Train the LSTM&lt;/font&gt;" style="rounded=1;whiteSpace=wrap;html=1;" vertex="1" parent="1">
          <mxGeometry x="10" y="300" width="120" height="60" as="geometry" />
        </mxCell>
        <mxCell id="i4j6CFAl2UJLHu69uaSK-9" style="edgeStyle=orthogonalEdgeStyle;rounded=0;orthogonalLoop=1;jettySize=auto;html=1;entryX=0.5;entryY=1;entryDx=0;entryDy=0;" edge="1" parent="1" source="i4j6CFAl2UJLHu69uaSK-7" target="i4j6CFAl2UJLHu69uaSK-5">
          <mxGeometry relative="1" as="geometry">
            <Array as="points">
              <mxPoint x="230" y="390" />
              <mxPoint x="70" y="390" />
            </Array>
          </mxGeometry>
        </mxCell>
        <mxCell id="i4j6CFAl2UJLHu69uaSK-11" style="edgeStyle=orthogonalEdgeStyle;rounded=0;orthogonalLoop=1;jettySize=auto;html=1;entryX=0;entryY=0.5;entryDx=0;entryDy=0;" edge="1" parent="1" source="i4j6CFAl2UJLHu69uaSK-7" target="i4j6CFAl2UJLHu69uaSK-10">
          <mxGeometry relative="1" as="geometry" />
        </mxCell>
        <mxCell id="i4j6CFAl2UJLHu69uaSK-7" value="&lt;font style=&quot;font-size: 18px;&quot;&gt;Validate the LSTM&lt;/font&gt;" style="rounded=1;whiteSpace=wrap;html=1;" vertex="1" parent="1">
          <mxGeometry x="170" y="300" width="120" height="60" as="geometry" />
        </mxCell>
        <mxCell id="i4j6CFAl2UJLHu69uaSK-13" style="edgeStyle=orthogonalEdgeStyle;rounded=0;orthogonalLoop=1;jettySize=auto;html=1;entryX=0;entryY=0.5;entryDx=0;entryDy=0;" edge="1" parent="1" source="i4j6CFAl2UJLHu69uaSK-10" target="i4j6CFAl2UJLHu69uaSK-12">
          <mxGeometry relative="1" as="geometry">
            <Array as="points">
              <mxPoint x="470" y="410" />
              <mxPoint x="-350" y="410" />
              <mxPoint x="-350" y="470" />
            </Array>
          </mxGeometry>
        </mxCell>
        <mxCell id="i4j6CFAl2UJLHu69uaSK-10" value="&lt;span style=&quot;font-size: 18px;&quot;&gt;Remove the output layer and use the last layer as feature extractor&lt;/span&gt;" style="rounded=1;whiteSpace=wrap;html=1;" vertex="1" parent="1">
          <mxGeometry x="330" y="300" width="280" height="60" as="geometry" />
        </mxCell>
        <mxCell id="i4j6CFAl2UJLHu69uaSK-15" style="edgeStyle=orthogonalEdgeStyle;rounded=0;orthogonalLoop=1;jettySize=auto;html=1;entryX=0;entryY=0.5;entryDx=0;entryDy=0;" edge="1" parent="1" source="i4j6CFAl2UJLHu69uaSK-12" target="i4j6CFAl2UJLHu69uaSK-14">
          <mxGeometry relative="1" as="geometry" />
        </mxCell>
        <mxCell id="i4j6CFAl2UJLHu69uaSK-12" value="&lt;span style=&quot;font-size: 18px;&quot;&gt;Train XGBoost Classifier&lt;/span&gt;" style="rounded=1;whiteSpace=wrap;html=1;" vertex="1" parent="1">
          <mxGeometry x="-310" y="440" width="120" height="60" as="geometry" />
        </mxCell>
        <mxCell id="i4j6CFAl2UJLHu69uaSK-17" style="edgeStyle=orthogonalEdgeStyle;rounded=0;orthogonalLoop=1;jettySize=auto;html=1;entryX=0.5;entryY=1;entryDx=0;entryDy=0;" edge="1" parent="1" source="i4j6CFAl2UJLHu69uaSK-14" target="i4j6CFAl2UJLHu69uaSK-12">
          <mxGeometry relative="1" as="geometry">
            <Array as="points">
              <mxPoint x="-70" y="530" />
              <mxPoint x="-250" y="530" />
            </Array>
          </mxGeometry>
        </mxCell>
        <mxCell id="i4j6CFAl2UJLHu69uaSK-18" style="edgeStyle=orthogonalEdgeStyle;rounded=0;orthogonalLoop=1;jettySize=auto;html=1;entryX=0;entryY=0.5;entryDx=0;entryDy=0;" edge="1" parent="1" source="i4j6CFAl2UJLHu69uaSK-14" target="i4j6CFAl2UJLHu69uaSK-16">
          <mxGeometry relative="1" as="geometry" />
        </mxCell>
        <mxCell id="i4j6CFAl2UJLHu69uaSK-14" value="&lt;span style=&quot;font-size: 18px;&quot;&gt;Validate XGBoost Classifier&lt;/span&gt;" style="rounded=1;whiteSpace=wrap;html=1;" vertex="1" parent="1">
          <mxGeometry x="-150" y="440" width="150" height="60" as="geometry" />
        </mxCell>
        <mxCell id="i4j6CFAl2UJLHu69uaSK-16" value="&lt;span style=&quot;font-size: 18px;&quot;&gt;Save the best models&lt;/span&gt;" style="rounded=1;whiteSpace=wrap;html=1;" vertex="1" parent="1">
          <mxGeometry x="40" y="440" width="120" height="60" as="geometry" />
        </mxCell>
        <mxCell id="WERhi1nvjVdFPRLAmY3q-1" value="&lt;font style=&quot;font-size: 18px;&quot;&gt;Dataset&lt;/font&gt;" style="shape=cylinder3;whiteSpace=wrap;html=1;boundedLbl=1;backgroundOutline=1;size=15;" vertex="1" parent="1">
          <mxGeometry x="-280" y="280" width="90" height="100" as="geometry" />
        </mxCell>
      </root>
    </mxGraphModel>
  </diagram>
  <diagram id="0bawYn_-fYOj1MNfmbMJ" name="Low_Level_Methodology">
    <mxGraphModel dx="2924" dy="1196" grid="1" gridSize="10" guides="1" tooltips="1" connect="1" arrows="1" fold="1" page="1" pageScale="1" pageWidth="850" pageHeight="1100" math="0" shadow="0">
      <root>
        <mxCell id="0" />
        <mxCell id="1" parent="0" />
        <mxCell id="l6acPNzE4GPZJftw-5n4-1" value="" style="rounded=0;whiteSpace=wrap;html=1;" vertex="1" parent="1">
          <mxGeometry x="-580" y="170" width="1660" height="990" as="geometry" />
        </mxCell>
        <mxCell id="l6acPNzE4GPZJftw-5n4-2" value="" style="rounded=0;whiteSpace=wrap;html=1;fillColor=#dae8fc;strokeColor=#6c8ebf;" vertex="1" parent="1">
          <mxGeometry x="-430" width="1720" height="870" as="geometry" />
        </mxCell>
        <mxCell id="l6acPNzE4GPZJftw-5n4-20" value="" style="rounded=0;whiteSpace=wrap;html=1;fillColor=#d5e8d4;strokeColor=#000000;dashed=1;" vertex="1" parent="1">
          <mxGeometry x="-180" y="140" width="590" height="390" as="geometry" />
        </mxCell>
        <mxCell id="l6acPNzE4GPZJftw-5n4-3" style="edgeStyle=orthogonalEdgeStyle;rounded=0;orthogonalLoop=1;jettySize=auto;html=1;entryX=0;entryY=0.5;entryDx=0;entryDy=0;" edge="1" parent="1">
          <mxGeometry relative="1" as="geometry">
            <mxPoint x="-220" y="330" as="sourcePoint" />
            <mxPoint x="-150" y="330" as="targetPoint" />
          </mxGeometry>
        </mxCell>
        <mxCell id="l6acPNzE4GPZJftw-5n4-14" style="edgeStyle=orthogonalEdgeStyle;rounded=0;orthogonalLoop=1;jettySize=auto;html=1;entryX=0;entryY=0.5;entryDx=0;entryDy=0;" edge="1" parent="1" source="l6acPNzE4GPZJftw-5n4-15" target="l6acPNzE4GPZJftw-5n4-18">
          <mxGeometry relative="1" as="geometry" />
        </mxCell>
        <mxCell id="l6acPNzE4GPZJftw-5n4-15" value="&lt;span style=&quot;font-size: 18px;&quot;&gt;Train XGBoost Classifier&lt;/span&gt;" style="rounded=1;whiteSpace=wrap;html=1;" vertex="1" parent="1">
          <mxGeometry x="60" y="910" width="120" height="60" as="geometry" />
        </mxCell>
        <mxCell id="l6acPNzE4GPZJftw-5n4-16" style="edgeStyle=orthogonalEdgeStyle;rounded=0;orthogonalLoop=1;jettySize=auto;html=1;entryX=0.5;entryY=1;entryDx=0;entryDy=0;" edge="1" parent="1" source="l6acPNzE4GPZJftw-5n4-18" target="l6acPNzE4GPZJftw-5n4-15">
          <mxGeometry relative="1" as="geometry">
            <Array as="points">
              <mxPoint x="300" y="1000" />
              <mxPoint x="120" y="1000" />
            </Array>
          </mxGeometry>
        </mxCell>
        <mxCell id="l6acPNzE4GPZJftw-5n4-18" value="&lt;span style=&quot;font-size: 18px;&quot;&gt;Validate XGBoost Classifier&lt;/span&gt;" style="rounded=1;whiteSpace=wrap;html=1;" vertex="1" parent="1">
          <mxGeometry x="220" y="910" width="150" height="60" as="geometry" />
        </mxCell>
        <mxCell id="l6acPNzE4GPZJftw-5n4-19" value="&lt;span style=&quot;font-size: 18px;&quot;&gt;Save the best models&lt;/span&gt;" style="rounded=1;whiteSpace=wrap;html=1;" vertex="1" parent="1">
          <mxGeometry x="410" y="910" width="120" height="60" as="geometry" />
        </mxCell>
        <mxCell id="l6acPNzE4GPZJftw-5n4-25" style="edgeStyle=orthogonalEdgeStyle;rounded=0;orthogonalLoop=1;jettySize=auto;html=1;entryX=0;entryY=0.5;entryDx=0;entryDy=0;" edge="1" parent="1" source="l6acPNzE4GPZJftw-5n4-21" target="l6acPNzE4GPZJftw-5n4-22">
          <mxGeometry relative="1" as="geometry" />
        </mxCell>
        <mxCell id="l6acPNzE4GPZJftw-5n4-26" style="edgeStyle=orthogonalEdgeStyle;rounded=0;orthogonalLoop=1;jettySize=auto;html=1;entryX=0;entryY=0.5;entryDx=0;entryDy=0;" edge="1" parent="1" source="l6acPNzE4GPZJftw-5n4-21" target="l6acPNzE4GPZJftw-5n4-23">
          <mxGeometry relative="1" as="geometry" />
        </mxCell>
        <mxCell id="l6acPNzE4GPZJftw-5n4-27" style="edgeStyle=orthogonalEdgeStyle;rounded=0;orthogonalLoop=1;jettySize=auto;html=1;entryX=0;entryY=0.5;entryDx=0;entryDy=0;" edge="1" parent="1" source="l6acPNzE4GPZJftw-5n4-21" target="l6acPNzE4GPZJftw-5n4-24">
          <mxGeometry relative="1" as="geometry" />
        </mxCell>
        <mxCell id="l6acPNzE4GPZJftw-5n4-21" value="&lt;font style=&quot;font-size: 18px;&quot;&gt;Describe the Data&lt;/font&gt;" style="rounded=1;whiteSpace=wrap;html=1;" vertex="1" parent="1">
          <mxGeometry x="-150" y="300" width="120" height="60" as="geometry" />
        </mxCell>
        <mxCell id="l6acPNzE4GPZJftw-5n4-30" style="edgeStyle=orthogonalEdgeStyle;rounded=0;orthogonalLoop=1;jettySize=auto;html=1;entryX=0;entryY=0.5;entryDx=0;entryDy=0;" edge="1" parent="1" source="l6acPNzE4GPZJftw-5n4-22" target="l6acPNzE4GPZJftw-5n4-28">
          <mxGeometry relative="1" as="geometry" />
        </mxCell>
        <mxCell id="l6acPNzE4GPZJftw-5n4-22" value="&lt;span style=&quot;font-size: 18px;&quot;&gt;Check ACF and PACF&lt;/span&gt;" style="rounded=1;whiteSpace=wrap;html=1;" vertex="1" parent="1">
          <mxGeometry x="40" y="300" width="120" height="60" as="geometry" />
        </mxCell>
        <mxCell id="l6acPNzE4GPZJftw-5n4-29" style="edgeStyle=orthogonalEdgeStyle;rounded=0;orthogonalLoop=1;jettySize=auto;html=1;entryX=0;entryY=0.5;entryDx=0;entryDy=0;" edge="1" parent="1" source="l6acPNzE4GPZJftw-5n4-23" target="l6acPNzE4GPZJftw-5n4-28">
          <mxGeometry relative="1" as="geometry" />
        </mxCell>
        <mxCell id="l6acPNzE4GPZJftw-5n4-23" value="&lt;span style=&quot;font-size: 18px;&quot;&gt;Check STL Decomposition&lt;/span&gt;" style="rounded=1;whiteSpace=wrap;html=1;" vertex="1" parent="1">
          <mxGeometry x="40" y="210" width="120" height="60" as="geometry" />
        </mxCell>
        <mxCell id="l6acPNzE4GPZJftw-5n4-31" style="edgeStyle=orthogonalEdgeStyle;rounded=0;orthogonalLoop=1;jettySize=auto;html=1;entryX=0;entryY=0.5;entryDx=0;entryDy=0;" edge="1" parent="1" source="l6acPNzE4GPZJftw-5n4-24" target="l6acPNzE4GPZJftw-5n4-28">
          <mxGeometry relative="1" as="geometry" />
        </mxCell>
        <mxCell id="l6acPNzE4GPZJftw-5n4-24" value="&lt;span style=&quot;font-size: 18px;&quot;&gt;Check Distributions&lt;/span&gt;" style="rounded=1;whiteSpace=wrap;html=1;" vertex="1" parent="1">
          <mxGeometry x="40" y="400" width="120" height="60" as="geometry" />
        </mxCell>
        <mxCell id="l6acPNzE4GPZJftw-5n4-28" value="&lt;font style=&quot;font-size: 18px;&quot;&gt;Transform the Data as needed (Normalization, Scaling, ETC)&lt;/font&gt;" style="rounded=1;whiteSpace=wrap;html=1;" vertex="1" parent="1">
          <mxGeometry x="230" y="285" width="150" height="90" as="geometry" />
        </mxCell>
        <mxCell id="5m7D118iJvGU7zvc5CV2-1" value="&lt;font style=&quot;font-size: 18px;&quot;&gt;EDA and Preprocess&lt;/font&gt;" style="rounded=1;whiteSpace=wrap;html=1;" vertex="1" parent="1">
          <mxGeometry x="-180" y="140" width="180" height="20" as="geometry" />
        </mxCell>
        <mxCell id="5m7D118iJvGU7zvc5CV2-2" value="" style="rounded=0;whiteSpace=wrap;html=1;fillColor=#ffe6cc;strokeColor=#000000;dashed=1;" vertex="1" parent="1">
          <mxGeometry x="410" y="140" width="540" height="390" as="geometry" />
        </mxCell>
        <mxCell id="5m7D118iJvGU7zvc5CV2-3" value="&lt;font style=&quot;font-size: 18px;&quot;&gt;Train and validate the LSTM&lt;/font&gt;" style="rounded=1;whiteSpace=wrap;html=1;" vertex="1" parent="1">
          <mxGeometry x="410" y="140" width="240" height="20" as="geometry" />
        </mxCell>
        <mxCell id="5m7D118iJvGU7zvc5CV2-7" style="edgeStyle=orthogonalEdgeStyle;rounded=0;orthogonalLoop=1;jettySize=auto;html=1;entryX=0;entryY=0.5;entryDx=0;entryDy=0;" edge="1" parent="1" source="5m7D118iJvGU7zvc5CV2-4" target="5m7D118iJvGU7zvc5CV2-6">
          <mxGeometry relative="1" as="geometry" />
        </mxCell>
        <mxCell id="5m7D118iJvGU7zvc5CV2-10" style="edgeStyle=orthogonalEdgeStyle;rounded=0;orthogonalLoop=1;jettySize=auto;html=1;entryX=0;entryY=0.5;entryDx=0;entryDy=0;" edge="1" parent="1" source="5m7D118iJvGU7zvc5CV2-4" target="5m7D118iJvGU7zvc5CV2-8">
          <mxGeometry relative="1" as="geometry" />
        </mxCell>
        <mxCell id="5m7D118iJvGU7zvc5CV2-11" style="edgeStyle=orthogonalEdgeStyle;rounded=0;orthogonalLoop=1;jettySize=auto;html=1;entryX=0;entryY=0.5;entryDx=0;entryDy=0;" edge="1" parent="1" source="5m7D118iJvGU7zvc5CV2-4" target="5m7D118iJvGU7zvc5CV2-9">
          <mxGeometry relative="1" as="geometry" />
        </mxCell>
        <mxCell id="5m7D118iJvGU7zvc5CV2-4" value="&lt;font style=&quot;font-size: 18px;&quot;&gt;Choose LSTM Architecture&lt;/font&gt;" style="rounded=1;whiteSpace=wrap;html=1;" vertex="1" parent="1">
          <mxGeometry x="440" y="300" width="120" height="60" as="geometry" />
        </mxCell>
        <mxCell id="5m7D118iJvGU7zvc5CV2-5" style="edgeStyle=orthogonalEdgeStyle;rounded=0;orthogonalLoop=1;jettySize=auto;html=1;entryX=0;entryY=0.5;entryDx=0;entryDy=0;" edge="1" parent="1" source="l6acPNzE4GPZJftw-5n4-28" target="5m7D118iJvGU7zvc5CV2-4">
          <mxGeometry relative="1" as="geometry" />
        </mxCell>
        <mxCell id="5m7D118iJvGU7zvc5CV2-14" style="edgeStyle=orthogonalEdgeStyle;rounded=0;orthogonalLoop=1;jettySize=auto;html=1;entryX=0;entryY=0.5;entryDx=0;entryDy=0;" edge="1" parent="1" source="5m7D118iJvGU7zvc5CV2-6" target="5m7D118iJvGU7zvc5CV2-12">
          <mxGeometry relative="1" as="geometry" />
        </mxCell>
        <mxCell id="5m7D118iJvGU7zvc5CV2-6" value="&lt;font style=&quot;font-size: 18px;&quot;&gt;Choose an optimizer&lt;/font&gt;" style="rounded=1;whiteSpace=wrap;html=1;" vertex="1" parent="1">
          <mxGeometry x="620" y="300" width="120" height="60" as="geometry" />
        </mxCell>
        <mxCell id="5m7D118iJvGU7zvc5CV2-13" style="edgeStyle=orthogonalEdgeStyle;rounded=0;orthogonalLoop=1;jettySize=auto;html=1;entryX=0;entryY=0.5;entryDx=0;entryDy=0;" edge="1" parent="1" source="5m7D118iJvGU7zvc5CV2-8" target="5m7D118iJvGU7zvc5CV2-12">
          <mxGeometry relative="1" as="geometry" />
        </mxCell>
        <mxCell id="5m7D118iJvGU7zvc5CV2-8" value="&lt;font style=&quot;font-size: 18px;&quot;&gt;Choose Loss function&lt;/font&gt;" style="rounded=1;whiteSpace=wrap;html=1;" vertex="1" parent="1">
          <mxGeometry x="620" y="210" width="120" height="60" as="geometry" />
        </mxCell>
        <mxCell id="5m7D118iJvGU7zvc5CV2-15" style="edgeStyle=orthogonalEdgeStyle;rounded=0;orthogonalLoop=1;jettySize=auto;html=1;entryX=0;entryY=0.5;entryDx=0;entryDy=0;" edge="1" parent="1" source="5m7D118iJvGU7zvc5CV2-9" target="5m7D118iJvGU7zvc5CV2-12">
          <mxGeometry relative="1" as="geometry" />
        </mxCell>
        <mxCell id="5m7D118iJvGU7zvc5CV2-9" value="&lt;font style=&quot;font-size: 18px;&quot;&gt;Setup early stopping&lt;/font&gt;" style="rounded=1;whiteSpace=wrap;html=1;" vertex="1" parent="1">
          <mxGeometry x="620" y="400" width="120" height="60" as="geometry" />
        </mxCell>
        <mxCell id="5m7D118iJvGU7zvc5CV2-18" value="" style="rounded=0;whiteSpace=wrap;html=1;fillColor=#fff2cc;strokeColor=#000000;dashed=1;" vertex="1" parent="1">
          <mxGeometry x="950" y="140" width="240" height="390" as="geometry" />
        </mxCell>
        <mxCell id="5m7D118iJvGU7zvc5CV2-17" style="edgeStyle=orthogonalEdgeStyle;rounded=0;orthogonalLoop=1;jettySize=auto;html=1;entryX=0;entryY=0.5;entryDx=0;entryDy=0;" edge="1" parent="1" source="5m7D118iJvGU7zvc5CV2-12" target="5m7D118iJvGU7zvc5CV2-16">
          <mxGeometry relative="1" as="geometry" />
        </mxCell>
        <mxCell id="5m7D118iJvGU7zvc5CV2-33" style="edgeStyle=orthogonalEdgeStyle;rounded=0;orthogonalLoop=1;jettySize=auto;html=1;entryX=0.5;entryY=0;entryDx=0;entryDy=0;" edge="1" parent="1" source="5m7D118iJvGU7zvc5CV2-12" target="5m7D118iJvGU7zvc5CV2-32">
          <mxGeometry relative="1" as="geometry" />
        </mxCell>
        <mxCell id="5m7D118iJvGU7zvc5CV2-12" value="&lt;font style=&quot;font-size: 18px;&quot;&gt;Train and Validate&lt;/font&gt;" style="rounded=1;whiteSpace=wrap;html=1;" vertex="1" parent="1">
          <mxGeometry x="800" y="300" width="120" height="60" as="geometry" />
        </mxCell>
        <mxCell id="5m7D118iJvGU7zvc5CV2-16" value="&lt;font style=&quot;font-size: 18px;&quot;&gt;Extract the features from last hidden layer&lt;/font&gt;" style="rounded=1;whiteSpace=wrap;html=1;" vertex="1" parent="1">
          <mxGeometry x="980" y="300" width="180" height="60" as="geometry" />
        </mxCell>
        <mxCell id="5m7D118iJvGU7zvc5CV2-19" value="&lt;span style=&quot;font-size: 18px;&quot;&gt;Extract features&lt;/span&gt;" style="rounded=1;whiteSpace=wrap;html=1;" vertex="1" parent="1">
          <mxGeometry x="950" y="140" width="130" height="20" as="geometry" />
        </mxCell>
        <mxCell id="5m7D118iJvGU7zvc5CV2-20" value="" style="rounded=0;whiteSpace=wrap;html=1;fillColor=#f8cecc;strokeColor=#000000;dashed=1;" vertex="1" parent="1">
          <mxGeometry x="-180" y="530" width="1370" height="250" as="geometry" />
        </mxCell>
        <mxCell id="5m7D118iJvGU7zvc5CV2-21" value="&lt;font style=&quot;font-size: 18px;&quot;&gt;Train and validate the XGBoost Classifier&lt;/font&gt;" style="rounded=1;whiteSpace=wrap;html=1;" vertex="1" parent="1">
          <mxGeometry x="-180" y="530" width="340" height="20" as="geometry" />
        </mxCell>
        <mxCell id="5m7D118iJvGU7zvc5CV2-22" value="&lt;span style=&quot;font-size: 18px;&quot;&gt;Add additional features&lt;/span&gt;" style="rounded=1;whiteSpace=wrap;html=1;" vertex="1" parent="1">
          <mxGeometry x="-150" y="690" width="120" height="60" as="geometry" />
        </mxCell>
        <mxCell id="5m7D118iJvGU7zvc5CV2-27" style="edgeStyle=orthogonalEdgeStyle;rounded=0;orthogonalLoop=1;jettySize=auto;html=1;entryX=0;entryY=0.5;entryDx=0;entryDy=0;" edge="1" parent="1" source="5m7D118iJvGU7zvc5CV2-23" target="5m7D118iJvGU7zvc5CV2-26">
          <mxGeometry relative="1" as="geometry" />
        </mxCell>
        <mxCell id="5m7D118iJvGU7zvc5CV2-23" value="&lt;span style=&quot;font-size: 18px;&quot;&gt;Choose hyper parameters&lt;/span&gt;" style="rounded=1;whiteSpace=wrap;html=1;" vertex="1" parent="1">
          <mxGeometry x="40" y="610" width="120" height="60" as="geometry" />
        </mxCell>
        <mxCell id="5m7D118iJvGU7zvc5CV2-24" style="edgeStyle=orthogonalEdgeStyle;rounded=0;orthogonalLoop=1;jettySize=auto;html=1;entryX=0;entryY=0.25;entryDx=0;entryDy=0;" edge="1" parent="1" source="5m7D118iJvGU7zvc5CV2-16" target="5m7D118iJvGU7zvc5CV2-23">
          <mxGeometry relative="1" as="geometry">
            <Array as="points">
              <mxPoint x="1070" y="560" />
              <mxPoint y="560" />
              <mxPoint y="625" />
            </Array>
          </mxGeometry>
        </mxCell>
        <mxCell id="5m7D118iJvGU7zvc5CV2-25" style="edgeStyle=orthogonalEdgeStyle;rounded=0;orthogonalLoop=1;jettySize=auto;html=1;entryX=-0.008;entryY=0.617;entryDx=0;entryDy=0;entryPerimeter=0;" edge="1" parent="1" source="5m7D118iJvGU7zvc5CV2-22" target="5m7D118iJvGU7zvc5CV2-23">
          <mxGeometry relative="1" as="geometry">
            <Array as="points">
              <mxPoint y="720" />
              <mxPoint y="647" />
            </Array>
          </mxGeometry>
        </mxCell>
        <mxCell id="5m7D118iJvGU7zvc5CV2-30" style="edgeStyle=orthogonalEdgeStyle;rounded=0;orthogonalLoop=1;jettySize=auto;html=1;entryX=1;entryY=0.5;entryDx=0;entryDy=0;" edge="1" parent="1" source="5m7D118iJvGU7zvc5CV2-26" target="5m7D118iJvGU7zvc5CV2-29">
          <mxGeometry relative="1" as="geometry" />
        </mxCell>
        <mxCell id="5m7D118iJvGU7zvc5CV2-35" style="edgeStyle=orthogonalEdgeStyle;rounded=0;orthogonalLoop=1;jettySize=auto;html=1;entryX=0;entryY=0.5;entryDx=0;entryDy=0;" edge="1" parent="1" source="5m7D118iJvGU7zvc5CV2-26" target="5m7D118iJvGU7zvc5CV2-34">
          <mxGeometry relative="1" as="geometry" />
        </mxCell>
        <mxCell id="5m7D118iJvGU7zvc5CV2-26" value="&lt;span style=&quot;font-size: 18px;&quot;&gt;Train and Validate Classifier&lt;/span&gt;" style="rounded=1;whiteSpace=wrap;html=1;" vertex="1" parent="1">
          <mxGeometry x="245" y="610" width="155" height="60" as="geometry" />
        </mxCell>
        <mxCell id="5m7D118iJvGU7zvc5CV2-31" style="edgeStyle=orthogonalEdgeStyle;rounded=0;orthogonalLoop=1;jettySize=auto;html=1;entryX=0.5;entryY=1;entryDx=0;entryDy=0;" edge="1" parent="1" source="5m7D118iJvGU7zvc5CV2-29" target="5m7D118iJvGU7zvc5CV2-23">
          <mxGeometry relative="1" as="geometry">
            <Array as="points">
              <mxPoint x="100" y="720" />
              <mxPoint x="100" y="690" />
              <mxPoint x="100" y="690" />
            </Array>
          </mxGeometry>
        </mxCell>
        <mxCell id="5m7D118iJvGU7zvc5CV2-29" value="&lt;span style=&quot;font-size: 18px;&quot;&gt;Fine Tune Parameters&lt;/span&gt;" style="rounded=1;whiteSpace=wrap;html=1;" vertex="1" parent="1">
          <mxGeometry x="140" y="690" width="120" height="60" as="geometry" />
        </mxCell>
        <mxCell id="5m7D118iJvGU7zvc5CV2-32" value="&lt;span style=&quot;font-size: 18px;&quot;&gt;Save the best model&lt;/span&gt;" style="rounded=1;whiteSpace=wrap;html=1;" vertex="1" parent="1">
          <mxGeometry x="800" y="400" width="120" height="60" as="geometry" />
        </mxCell>
        <mxCell id="5m7D118iJvGU7zvc5CV2-37" style="edgeStyle=orthogonalEdgeStyle;rounded=0;orthogonalLoop=1;jettySize=auto;html=1;entryX=0;entryY=0.5;entryDx=0;entryDy=0;" edge="1" parent="1" source="5m7D118iJvGU7zvc5CV2-34" target="5m7D118iJvGU7zvc5CV2-36">
          <mxGeometry relative="1" as="geometry" />
        </mxCell>
        <mxCell id="5m7D118iJvGU7zvc5CV2-34" value="&lt;span style=&quot;font-size: 18px;&quot;&gt;Apply model to testing set&lt;/span&gt;" style="rounded=1;whiteSpace=wrap;html=1;" vertex="1" parent="1">
          <mxGeometry x="490" y="610" width="120" height="60" as="geometry" />
        </mxCell>
        <mxCell id="5m7D118iJvGU7zvc5CV2-36" value="&lt;span style=&quot;font-size: 18px;&quot;&gt;Save the best model&lt;/span&gt;" style="rounded=1;whiteSpace=wrap;html=1;" vertex="1" parent="1">
          <mxGeometry x="700" y="610" width="120" height="60" as="geometry" />
        </mxCell>
        <mxCell id="G1ynKK8WVgmpPq8LMq3y-1" value="&lt;font style=&quot;font-size: 18px;&quot;&gt;Dataset&lt;/font&gt;" style="shape=cylinder3;whiteSpace=wrap;html=1;boundedLbl=1;backgroundOutline=1;size=15;" vertex="1" parent="1">
          <mxGeometry x="-310" y="280" width="90" height="100" as="geometry" />
        </mxCell>
      </root>
    </mxGraphModel>
  </diagram>
  <diagram id="xw0MUesS5qK2sgQgKgt-" name="Model_Architecture">
    <mxGraphModel dx="2924" dy="1196" grid="1" gridSize="10" guides="1" tooltips="1" connect="1" arrows="1" fold="1" page="1" pageScale="1" pageWidth="850" pageHeight="1100" math="0" shadow="0">
      <root>
        <mxCell id="0" />
        <mxCell id="1" parent="0" />
        <mxCell id="3ys5pR-TYroZHGbHdZlX-1" value="" style="rounded=0;whiteSpace=wrap;html=1;" parent="1" vertex="1">
          <mxGeometry x="-570" y="70" width="2030" height="1150" as="geometry" />
        </mxCell>
        <mxCell id="3ys5pR-TYroZHGbHdZlX-4" style="edgeStyle=orthogonalEdgeStyle;rounded=0;orthogonalLoop=1;jettySize=auto;html=1;entryX=0.5;entryY=1;entryDx=0;entryDy=0;" parent="1" source="3ys5pR-TYroZHGbHdZlX-2" target="3ys5pR-TYroZHGbHdZlX-3" edge="1">
          <mxGeometry relative="1" as="geometry" />
        </mxCell>
        <mxCell id="3ys5pR-TYroZHGbHdZlX-2" value="&lt;font style=&quot;font-size: 18px;&quot;&gt;Raw Data&lt;/font&gt;" style="rounded=0;whiteSpace=wrap;html=1;" parent="1" vertex="1">
          <mxGeometry x="-425" y="330" width="120" height="60" as="geometry" />
        </mxCell>
        <mxCell id="3ys5pR-TYroZHGbHdZlX-6" style="edgeStyle=orthogonalEdgeStyle;rounded=0;orthogonalLoop=1;jettySize=auto;html=1;entryX=0;entryY=0.5;entryDx=0;entryDy=0;" parent="1" source="3ys5pR-TYroZHGbHdZlX-3" target="3ys5pR-TYroZHGbHdZlX-5" edge="1">
          <mxGeometry relative="1" as="geometry" />
        </mxCell>
        <mxCell id="3ys5pR-TYroZHGbHdZlX-3" value="&lt;font style=&quot;font-size: 18px;&quot;&gt;Preprocessing&lt;/font&gt;" style="rounded=0;whiteSpace=wrap;html=1;rotation=90;" parent="1" vertex="1">
          <mxGeometry x="-390" y="345" width="300" height="30" as="geometry" />
        </mxCell>
        <mxCell id="3ys5pR-TYroZHGbHdZlX-17" style="edgeStyle=orthogonalEdgeStyle;rounded=0;orthogonalLoop=1;jettySize=auto;html=1;entryX=0;entryY=0.5;entryDx=0;entryDy=0;" parent="1" source="3ys5pR-TYroZHGbHdZlX-5" target="3ys5pR-TYroZHGbHdZlX-9" edge="1">
          <mxGeometry relative="1" as="geometry" />
        </mxCell>
        <mxCell id="3ys5pR-TYroZHGbHdZlX-5" value="&lt;font style=&quot;font-size: 18px;&quot;&gt;Input Layer&lt;/font&gt;" style="rounded=0;whiteSpace=wrap;html=1;strokeColor=#0000CC;" parent="1" vertex="1">
          <mxGeometry x="-190" y="330" width="120" height="60" as="geometry" />
        </mxCell>
        <mxCell id="3ys5pR-TYroZHGbHdZlX-7" value="&lt;font style=&quot;font-size: 18px;&quot;&gt;Number of Neurons: 64&lt;/font&gt;" style="rounded=0;whiteSpace=wrap;html=1;strokeColor=#FF0000;" parent="1" vertex="1">
          <mxGeometry x="-20" y="290" width="120" height="60" as="geometry" />
        </mxCell>
        <mxCell id="3ys5pR-TYroZHGbHdZlX-8" value="&lt;font style=&quot;font-size: 18px;&quot;&gt;Activation function: tanh&lt;/font&gt;" style="rounded=0;whiteSpace=wrap;html=1;strokeColor=#FF0000;" parent="1" vertex="1">
          <mxGeometry x="-20" y="375" width="120" height="60" as="geometry" />
        </mxCell>
        <mxCell id="3ys5pR-TYroZHGbHdZlX-16" style="edgeStyle=orthogonalEdgeStyle;rounded=0;orthogonalLoop=1;jettySize=auto;html=1;entryX=0;entryY=0.5;entryDx=0;entryDy=0;" parent="1" source="3ys5pR-TYroZHGbHdZlX-9" target="3ys5pR-TYroZHGbHdZlX-12" edge="1">
          <mxGeometry relative="1" as="geometry" />
        </mxCell>
        <mxCell id="3ys5pR-TYroZHGbHdZlX-9" value="" style="rounded=0;whiteSpace=wrap;html=1;fillColor=none;dashed=1;strokeColor=#FF0000;" parent="1" vertex="1">
          <mxGeometry x="-40" y="240" width="160" height="240" as="geometry" />
        </mxCell>
        <mxCell id="3ys5pR-TYroZHGbHdZlX-10" value="&lt;font color=&quot;#ff0000&quot; style=&quot;font-size: 18px;&quot;&gt;LSTM Layer 1&lt;/font&gt;" style="rounded=1;whiteSpace=wrap;html=1;" parent="1" vertex="1">
          <mxGeometry x="-20" y="230" width="120" height="30" as="geometry" />
        </mxCell>
        <mxCell id="3ys5pR-TYroZHGbHdZlX-21" style="edgeStyle=orthogonalEdgeStyle;rounded=0;orthogonalLoop=1;jettySize=auto;html=1;entryX=0;entryY=0.5;entryDx=0;entryDy=0;" parent="1" source="3ys5pR-TYroZHGbHdZlX-12" target="3ys5pR-TYroZHGbHdZlX-18" edge="1">
          <mxGeometry relative="1" as="geometry" />
        </mxCell>
        <mxCell id="3ys5pR-TYroZHGbHdZlX-12" value="" style="rounded=0;whiteSpace=wrap;html=1;fillColor=none;dashed=1;strokeColor=#FF0000;" parent="1" vertex="1">
          <mxGeometry x="150" y="240" width="160" height="240" as="geometry" />
        </mxCell>
        <mxCell id="3ys5pR-TYroZHGbHdZlX-13" value="&lt;font color=&quot;#ff0000&quot; style=&quot;font-size: 18px;&quot;&gt;LSTM Layer 2&lt;/font&gt;" style="rounded=1;whiteSpace=wrap;html=1;" parent="1" vertex="1">
          <mxGeometry x="170" y="230" width="120" height="30" as="geometry" />
        </mxCell>
        <mxCell id="3ys5pR-TYroZHGbHdZlX-14" value="&lt;font style=&quot;font-size: 18px;&quot;&gt;Number of Neurons: 64&lt;/font&gt;" style="rounded=0;whiteSpace=wrap;html=1;strokeColor=#FF0000;" parent="1" vertex="1">
          <mxGeometry x="170" y="290" width="120" height="60" as="geometry" />
        </mxCell>
        <mxCell id="3ys5pR-TYroZHGbHdZlX-15" value="&lt;font style=&quot;font-size: 18px;&quot;&gt;Activation function: tanh&lt;/font&gt;" style="rounded=0;whiteSpace=wrap;html=1;strokeColor=#FF0000;" parent="1" vertex="1">
          <mxGeometry x="170" y="375" width="120" height="60" as="geometry" />
        </mxCell>
        <mxCell id="3ys5pR-TYroZHGbHdZlX-31" style="edgeStyle=orthogonalEdgeStyle;rounded=0;orthogonalLoop=1;jettySize=auto;html=1;entryX=0;entryY=0.5;entryDx=0;entryDy=0;" parent="1" source="3ys5pR-TYroZHGbHdZlX-18" target="3ys5pR-TYroZHGbHdZlX-30" edge="1">
          <mxGeometry relative="1" as="geometry" />
        </mxCell>
        <mxCell id="3ys5pR-TYroZHGbHdZlX-18" value="" style="rounded=0;whiteSpace=wrap;html=1;fillColor=none;dashed=1;strokeColor=#00FF00;" parent="1" vertex="1">
          <mxGeometry x="340" y="240" width="160" height="240" as="geometry" />
        </mxCell>
        <mxCell id="3ys5pR-TYroZHGbHdZlX-19" value="&lt;font style=&quot;font-size: 18px;&quot;&gt;Fully Connected Layer&lt;/font&gt;" style="rounded=1;whiteSpace=wrap;html=1;strokeColor=#00FF00;" parent="1" vertex="1">
          <mxGeometry x="360" y="200" width="120" height="70" as="geometry" />
        </mxCell>
        <mxCell id="3ys5pR-TYroZHGbHdZlX-20" value="&lt;font style=&quot;font-size: 18px;&quot;&gt;Number of Neurons: 1&lt;/font&gt;" style="rounded=0;whiteSpace=wrap;html=1;strokeColor=#00FF00;" parent="1" vertex="1">
          <mxGeometry x="360" y="290" width="120" height="60" as="geometry" />
        </mxCell>
        <mxCell id="3ys5pR-TYroZHGbHdZlX-22" value="&lt;font style=&quot;font-size: 18px;&quot;&gt;Activation function: Linear&lt;/font&gt;" style="rounded=0;whiteSpace=wrap;html=1;strokeColor=#00FF00;" parent="1" vertex="1">
          <mxGeometry x="360" y="375" width="120" height="60" as="geometry" />
        </mxCell>
        <mxCell id="3ys5pR-TYroZHGbHdZlX-24" value="" style="shape=flexArrow;endArrow=classic;html=1;rounded=0;endWidth=38;endSize=15;width=30;" parent="1" edge="1">
          <mxGeometry width="50" height="50" relative="1" as="geometry">
            <mxPoint x="-190" y="170" as="sourcePoint" />
            <mxPoint x="640" y="170" as="targetPoint" />
          </mxGeometry>
        </mxCell>
        <mxCell id="3ys5pR-TYroZHGbHdZlX-26" value="&lt;font style=&quot;font-size: 18px;&quot;&gt;Forward Propagation&lt;/font&gt;" style="edgeLabel;html=1;align=center;verticalAlign=middle;resizable=0;points=[];" parent="3ys5pR-TYroZHGbHdZlX-24" vertex="1" connectable="0">
          <mxGeometry x="-0.0649" y="1" relative="1" as="geometry">
            <mxPoint as="offset" />
          </mxGeometry>
        </mxCell>
        <mxCell id="3ys5pR-TYroZHGbHdZlX-27" value="" style="shape=flexArrow;endArrow=classic;html=1;rounded=0;endWidth=38;endSize=15;width=30;" parent="1" edge="1">
          <mxGeometry width="50" height="50" relative="1" as="geometry">
            <mxPoint x="640" y="530" as="sourcePoint" />
            <mxPoint x="-190" y="530" as="targetPoint" />
          </mxGeometry>
        </mxCell>
        <mxCell id="3ys5pR-TYroZHGbHdZlX-28" value="&lt;font style=&quot;font-size: 18px;&quot;&gt;Back Propagation - Adam Optimizer, Number of Epochs: 100 (With Early Stopping)&lt;/font&gt;" style="edgeLabel;html=1;align=center;verticalAlign=middle;resizable=0;points=[];" parent="3ys5pR-TYroZHGbHdZlX-27" vertex="1" connectable="0">
          <mxGeometry x="-0.0649" y="1" relative="1" as="geometry">
            <mxPoint as="offset" />
          </mxGeometry>
        </mxCell>
        <mxCell id="3ys5pR-TYroZHGbHdZlX-30" value="&lt;font style=&quot;font-size: 18px;&quot;&gt;Calculate Loss - MSE&lt;/font&gt;" style="rounded=1;whiteSpace=wrap;html=1;strokeColor=#0000CC;" parent="1" vertex="1">
          <mxGeometry x="520" y="330" width="120" height="60" as="geometry" />
        </mxCell>
      </root>
    </mxGraphModel>
  </diagram>
</mxfile>
